<svg xmlns="http://www.w3.org/2000/svg" viewBox="0 0 24 24" fill="none" stroke="#10b981" stroke-width="2" stroke-linecap="round" stroke-linejoin="round">
  <circle cx="12" cy="12" r="1"/>
  <path d="M20.2 20.2c2.04-2.03.2-5.6-4.14-7.95a12.43 12.43 0 0 0-8.2-1.92"/>
  <path d="M15.8 8.44c-2.04-2.03-5.6-.2-7.95 4.14a12.43 12.43 0 0 0-1.92 8.2"/>
  <path d="M15.8 15.8c2.03 2.04.2 5.6-4.14 7.95a12.43 12.43 0 0 0-8.2 1.92"/>
  <path d="M8.44 15.8c-2.03 2.04-.2 5.6 4.14 7.95a12.43 12.43 0 0 0 8.2 1.92"/>
  <path d="M3.8 3.8c-2.04 2.03-.2 5.6 4.14 7.95a12.43 12.43 0 0 0 8.2 1.92"/>
  <path d="M8.44 8.44c2.03-2.04 5.6-.2 7.95 4.14a12.43 12.43 0 0 0 1.92 8.2"/>
</svg>